PathFileType	4	(X/Y/Z)	Patient4_TMGait_0pt6_01_right_04.trc.trc
DataRate	CameraRate	NumFrames	NumMarkers	Units	OrigDataRate	OrigDataStartFrame	OrigNumFrames
81.871345029240	81.871345029240	6	33	mm	81.871345029240	71	       141
Frame#	Time	Sacral			L.Shoulder			Chest			R.Shoulder			Neck			R.ASIS			L.ASIS			R.Thigh.Superior			R.Thigh.Lateral			R.Thigh.Inferior			R.Patella			L.Thigh.Superior			L.Thigh.Lateral			L.Thigh.Inferior			L.Patella			L.Shank.Superior			L.Shank.Lateral			L.Shank.Inferior			R.Shank.Superior			R.Shank.Lateral			R.Shank.Inferior			R.Heel			R.Midfoot.Superior			R.Midfoot.Lateral			R.Toe			L.Heel			L.Midfoot.Lateral			L.Midfoot.Superior			L.Toe			L.Elbow			L.Wrist			R.Elbow			R.Wrist			
		X1	Y1	Z1	X2	Y2	Z2	X3	Y3	Z3	X4	Y4	Z4	X5	Y5	Z5	X6	Y6	Z6	X7	Y7	Z7	X8	Y8	Z8	X9	Y9	Z9	X10	Y10	Z10	X11	Y11	Z11	X12	Y12	Z12	X13	Y13	Z13	X14	Y14	Z14	X15	Y15	Z15	X16	Y16	Z16	X17	Y17	Z17	X18	Y18	Z18	X19	Y19	Z19	X20	Y20	Z20	X21	Y21	Z21	X22	Y22	Z22	X23	Y23	Z23	X24	Y24	Z24	X25	Y25	Z25	X26	Y26	Z26	X27	Y27	Z27	X28	Y28	Z28	X29	Y29	Z29	X30	Y30	Z30	X31	Y31	Z31	X32	Y32	Z32	X33	Y33	Z33	

71	5.045000000000	620.772390322892	1007.926262947241	502.122298951438	776.038436146061	1431.414569652838	305.921358068361	902.539201845562	1356.835691818931	446.286173739642	851.454368293265	1430.994108069415	630.568200608519	792.536090748555	1488.799653378807	458.663536995147	853.320290018722	929.815778848935	590.363087769156	811.778352590103	956.344821935738	319.597768093516	845.537840151325	717.782750148095	560.827236714562	743.469941328815	625.717141684181	626.205742719400	798.366218185453	560.433576164095	542.230141166321	778.192484483557	476.077924986103	545.838266440471	883.288573453733	767.288302156531	349.732782115279	825.154070429293	638.693525349006	279.951433823106	926.339925071637	577.131699349878	341.090127296203	951.696819195209	514.726973517555	340.531998660033	938.136133805095	443.867627257863	332.342208973039	878.074118685593	309.736065575443	286.521566164813	970.828035975602	217.319640416636	343.601888993445	739.440463157469	392.529311576659	552.982120342061	657.248693281782	298.256071905215	615.768198898025	682.499491827369	200.132278224086	549.577199905292	529.862285844305	42.966652072673	517.922717694469	701.425630804331	95.445981949183	555.384383154396	611.761128310938	35.946149357978	593.131251102744	820.382539573766	40.467802535868	587.123223856450	894.416375541207	39.967944948187	388.639599788088	968.504248426661	41.959917200635	308.432838724188	1039.080414613774	119.037087121624	326.352197232249	1172.626934940993	88.649329976952	301.885036049886	643.053394115059	1106.457369235226	195.230756135232	610.459903408640	848.824631258628	192.977419921644	988.555150645596	1119.153849228486	739.036919678686	1163.136756936747	1257.306579978757	636.716465360842	
72	5.057214285714	621.792831122783	1006.178109300823	499.812814064528	776.058063530279	1429.676390556863	303.360073712798	902.414278641962	1355.743697678052	444.264117858857	850.437201326372	1430.019176981156	628.316180909187	791.988171497001	1487.422316188628	456.064889454255	854.037824637681	928.543175016841	589.253371598292	813.478920115927	954.608817030598	318.243388941178	845.538680609304	716.207430571323	559.962572862553	742.534589545982	624.570821973403	624.930874787250	797.286684924771	558.773091643459	541.207776063046	776.389135773175	474.053729126255	544.544963832546	884.970335788506	765.190530065782	348.168976543276	824.798413000052	636.256820081288	279.971532611967	926.467104618534	575.104563159988	340.608786316593	950.779390792038	511.902434130510	340.973705510693	936.750010629348	440.655922580560	333.090833637497	874.800649441102	307.145572418670	287.940562979745	966.239984574807	213.764807714576	345.421019285377	736.488721037923	391.007265643966	551.844650108079	653.195511713598	297.916306704749	615.123240510255	676.740085221231	199.396995046097	548.998616817759	522.488779700894	43.154222682719	517.985945959028	694.106564228899	95.423635562417	555.246101444598	604.428796583684	35.998653767733	593.151934877203	813.063543479906	40.279182696835	587.158206712287	886.651722791539	38.836565052267	390.855414996345	960.200645372223	39.890369271612	310.009550348502	1033.048309920241	114.450611098400	328.673312259601	1165.709294759510	80.339972057089	302.839031438944	643.409475047735	1104.320356051725	193.466143831654	612.971648653080	846.291503446586	191.709896526160	985.332431695531	1116.440438392013	736.834684095629	1164.006790225477	1249.367863230850	633.587654527358	
73	5.069428571429	622.775543490447	1004.457623788620	497.356239239081	776.131155721203	1427.891166587365	300.647977833943	902.319540155147	1354.708217733200	442.177421743111	849.335098389338	1429.129555320695	625.969316741837	791.436770138410	1486.085116751523	453.288342213114	854.834876875848	927.258738912353	588.127211760434	815.334728049051	953.007131529686	316.879125027763	845.887269063875	714.660344183177	559.078570327278	741.984341578422	623.386240717598	623.538502841118	796.719372735553	557.094047990126	540.121171214983	775.143825661445	471.869932192503	543.197012881178	886.867343266094	763.200546348017	346.761438868378	825.007618672563	634.195532049957	279.799874253391	926.963883516881	573.375262216592	340.279203112201	950.105051407250	509.308170938677	341.514914254983	935.697750505906	437.681762423860	333.739213199439	871.997186501451	304.877691264624	288.875067375107	961.811342066467	210.440875359172	347.011585799754	733.931005433251	389.403249555828	550.635741287830	649.402411422952	297.637289445218	614.418104138250	671.147218646345	198.707029742938	548.417906576432	515.139004365371	43.566723912066	518.076223952377	686.881689337504	95.448170731784	555.144684501972	597.128962265426	36.154589661664	593.184394012766	805.773851674920	40.051383370593	587.192857804605	878.683803434458	37.952677689328	392.477457999522	951.909441286745	38.140485495083	311.195113339446	1026.968107282133	110.153867241461	330.880420787625	1158.768983968940	72.332239750138	304.035274004663	644.389098108811	1101.833405674180	191.516802100693	616.557684276960	843.359890991183	190.311327936626	981.511379949380	1113.582738777810	734.686922812721	1164.646377906624	1240.280811666490	630.333918034192	
74	5.081642857143	623.686058504306	1002.862936111692	494.792463413450	776.249516887077	1426.151792404141	297.825560220956	902.263048839881	1353.788940422273	440.031486987786	848.221269584357	1428.393629800959	623.543054035722	790.918492817830	1484.870005961193	450.371790167217	855.671856750677	926.035935408928	586.932153786075	817.252264266906	951.651324022889	315.465597324133	846.551626331275	713.221301059386	558.110601089028	741.850459956808	622.220671815635	622.016814880708	796.706337475212	555.464301487300	538.958257465651	774.528990701261	469.572000735362	541.833881852989	888.926639080588	761.498478295788	345.529780134964	825.862365188939	632.655069609332	279.403577588054	927.879760285170	572.084387951180	340.075635830126	949.750310328249	507.099647513458	342.076926088678	935.047802356441	435.094558578831	334.229287618195	869.774974686837	303.066365052095	289.268788817039	957.664120802777	207.518070171448	348.312198062472	731.819689691332	387.779132518569	549.395060926768	645.895882942646	297.500846465684	613.670024694239	665.765529878203	198.134580757729	547.870847648454	507.835264478836	44.322266796396	518.207403919458	679.799880981421	95.536268164821	555.107788363721	589.875959481680	36.466421097628	593.233815661879	798.520217030633	39.785623385603	587.227290507761	870.781755468107	37.355954498041	393.545254525300	943.869829471574	36.781417761551	312.005604573099	1020.946947993606	106.386818007408	332.854997922171	1151.951138086550	65.115004361406	305.338342397107	646.050051220687	1099.072019029530	189.414012976851	621.214606237424	840.131879997604	188.776307653790	977.118107591646	1110.661315793786	732.598994656237	1165.021511801710	1229.986098018022	626.977251170574	
75	5.093857142857	624.507442221301	1001.486523463414	492.156777014788	776.399155656316	1424.561455101901	294.938660647588	902.246603717320	1353.048737941061	437.833202323056	847.163915394324	1427.878490116322	621.054995988879	790.461403158734	1483.858970348803	447.362980568496	856.506546004964	924.960778897226	585.612188170020	819.146790748704	950.638655317831	313.953149334132	847.485150406058	711.976695693559	556.998322287717	742.155887952410	621.137210738423	620.367006514062	797.285660171819	553.957456691659	537.720682758691	774.619134305067	467.216148707140	540.520833503113	891.102698257718	760.253629984553	344.474418906972	827.403019697783	631.734851677262	278.771241488595	929.230246927197	571.322989196240	339.955083606219	949.763601837692	505.374259856852	342.579723950558	934.808932468681	432.981821121161	334.528202578829	868.130669738668	301.795376567062	289.116450366130	953.801932698745	205.096359737494	349.293601443153	730.213603903148	386.203970853872	548.181854794541	642.708354125453	297.597540402279	612.904931108558	660.650698111094	197.758806461533	547.401898749178	500.609626243692	45.554101479559	518.392947848709	672.917126936158	95.703217325691	555.164725763647	582.687736034754	36.995037796639	593.305997937113	791.306649433241	39.485325192295	587.260938171510	863.083546653864	37.037877317931	394.133769022383	936.174609219208	35.826087244618	312.478519346354	1014.977605891569	103.301038670288	334.503298183379	1145.281044038796	59.043125781465	306.601890943470	648.434785375952	1096.135600958708	187.194690015354	626.945089199537	836.733711728833	187.104516214533	972.187734223377	1107.770155750043	730.565653838199	1165.095663466972	1218.425085652274	623.548534507521	
76	5.106071428571	625.240819209383	1000.404310611132	489.473154199101	776.562360618372	1423.221488873665	292.032621697868	902.264911554711	1352.546526114325	435.590620937414	846.214802277615	1427.641111060858	618.522996833229	790.080320309572	1483.123494478331	444.313511470408	857.299714590528	924.121633091167	584.117470844753	820.955189359682	950.036861557045	312.289975900617	848.636140957059	711.008918676245	555.698355363950	742.915959656054	620.196376382792	618.605736079560	798.492675072303	552.644517241335	536.426834189971	775.487454216872	464.863512482952	539.345059472723	893.353770847543	759.587904755490	343.574029213746	829.596135990601	631.466136071771	277.912660628616	930.967966010288	571.104630595810	339.858296839632	950.134390917290	504.154576561433	342.954582536604	934.915768711904	431.361616089275	334.631905779459	866.955452630171	301.082079383557	288.468728022074	950.137369047297	203.203470228318	349.963722023644	729.177178210000	384.746210698581	547.069842850575	639.881052727473	298.018683822636	612.156030221453	655.868843661258	197.659325503569	547.059896347790	493.505306457651	47.402793465739	518.643852340905	666.293268237081	95.962092197049	555.342779732121	575.586067033108	37.808536634626	593.406757112273	784.132723917758	39.153995458512	587.291816511614	855.624014511315	36.953412177600	394.340159128937	928.809043190100	35.239747988281	312.669073780768	1008.988280787346	100.952196343205	335.775010477736	1138.709165564265	54.301415697746	307.703546794377	651.560075003266	1093.140302875059	184.896456406926	633.752018283361	833.307001206795	185.301657125054	966.767197815259	1105.011426039482	728.570352837806	1164.824521478957	1205.550450725675	620.088946383754	
